<svg viewBox="0 0 16 24" fill="none" xmlns="http://www.w3.org/2000/svg">
<g clip-path="url(#clip0_325_1222)">
<path d="M5.15312 4.76872C4.9125 4.18747 4.27812 3.8781 3.67188 4.04372L0.921875 4.79372C0.378125 4.94372 0 5.43747 0 5.99997C0 13.7312 6.26875 20 14 20C14.5625 20 15.0563 19.6218 15.2063 19.0781L15.9563 16.3281C16.1219 15.7218 15.8125 15.0875 15.2312 14.8468L12.2312 13.5968C11.7219 13.3843 11.1313 13.5312 10.7844 13.9593L9.52188 15.5C7.32188 14.4593 5.54062 12.6781 4.5 10.4781L6.04063 9.21872C6.46875 8.86872 6.61562 8.28122 6.40312 7.77185L5.15312 4.77185V4.76872Z" fill="#FEBD11"/>
</g>
<defs>
<clipPath id="clip0_325_1222">
<rect width="16" height="16" fill="white" transform="translate(0 4)"/>
</clipPath>
</defs>
</svg>
